<svg width="61" height="56" fill="none" xmlns="http://www.w3.org/2000/svg"><path d="M61 56 48.8 44.8H18.3c-1.678 0-3.114-.548-4.308-1.645C12.797 42.058 12.2 40.74 12.2 39.2v-2.8h33.55c1.678 0 3.114-.548 4.308-1.645 1.195-1.097 1.792-2.415 1.792-3.955V11.2h3.05c1.678 0 3.114.548 4.308 1.645C60.403 13.942 61 15.26 61 16.8V56ZM6.1 28.49l3.584-3.29H39.65V5.6H6.1v22.89ZM0 42V5.6c0-1.54.597-2.858 1.792-3.955C2.986.548 4.422 0 6.1 0h33.55c1.678 0 3.114.548 4.308 1.645C45.153 2.742 45.75 4.06 45.75 5.6v19.6c0 1.54-.597 2.858-1.792 3.955-1.194 1.097-2.63 1.645-4.308 1.645H12.2L0 42Z" fill="#A1FCFF"/></svg>