<svg width="93" height="77" fill="none" xmlns="http://www.w3.org/2000/svg"><path transform="matrix(-1 0 0 1 93 0)" fill="url(#a)" d="M0 0h15.304v77H0z"/><path transform="matrix(-1 0 0 1 67.101 13)" fill="url(#b)" d="M0 0h15.304v64H0z"/><path transform="matrix(-1 0 0 1 41.203 30)" fill="url(#c)" d="M0 0h15.304v47H0z"/><path transform="matrix(-1 0 0 1 15.304 47)" fill="url(#d)" d="M0 0h15.304v30H0z"/><defs><linearGradient id="a" x1="7.652" y1="0" x2="7.652" y2="77" gradientUnits="userSpaceOnUse"><stop stop-color="#A1FCFF"/><stop offset="1" stop-color="#025E8C"/></linearGradient><linearGradient id="b" x1="7.652" y1="0" x2="7.652" y2="64" gradientUnits="userSpaceOnUse"><stop stop-color="#A1FCFF"/><stop offset="1" stop-color="#025E8C"/></linearGradient><linearGradient id="c" x1="7.652" y1="0" x2="7.652" y2="47" gradientUnits="userSpaceOnUse"><stop stop-color="#A1FCFF"/><stop offset="1" stop-color="#025E8C"/></linearGradient><linearGradient id="d" x1="7.652" y1="0" x2="7.652" y2="30" gradientUnits="userSpaceOnUse"><stop stop-color="#A1FCFF"/><stop offset="1" stop-color="#025E8C"/></linearGradient></defs></svg>