<svg width="313" height="77" fill="none" xmlns="http://www.w3.org/2000/svg"><path fill="url(#a)" d="M234 0h13v77h-13z"/><path fill="url(#b)" d="M256 13h13v64h-13z"/><path fill="url(#c)" d="M278 30h13v47h-13z"/><path fill="url(#d)" d="M300 47h13v30h-13z"/><mask id="f" maskUnits="userSpaceOnUse" x="3" y="15" width="218" height="62" fill="#000"><path fill="#fff" d="M3 15h218v62H3z"/><path d="m11.072 64-6.72-6.72V23.552l6.72-6.72h21.312l6.528 6.528-3.712 3.776-5.12-5.12H13.696l-3.52 3.52v29.76l3.52 3.52h16.896l5.184-5.184 3.712 3.776L32.832 64h-21.76Zm43.486 0-6.72-6.72V37.248l6.72-6.72H70.43l6.72 6.72V57.28L70.43 64H54.557Zm2.431-4.48h11.009l3.52-3.52-.064-17.472-3.456-3.52H56.989l-3.52 3.52V56l3.52 3.52ZM94.416 64l-6.72-6.72V37.248l6.72-6.72h12.288l5.184 5.312V16.832h5.632V64h-5.632v-5.248L106.703 64H94.415Zm10.88-4.48 6.592-6.656V41.728l-6.592-6.72h-8.448l-3.52 3.52V56l3.52 3.52h8.448Zm24.588-32.64v-7.552h5.632v7.552h-5.632Zm0 37.12V30.528h5.632V64h-5.632Zm17.982 0V30.528h5.632v6.016l5.824-6.016h12.352l6.656 6.72V64h-5.632V38.656l-3.392-3.648h-8.512l-7.296 7.424V64h-5.632Zm44.402 11.968v-4.672l18.048-.064 3.52-3.456v-9.024L208.651 64h-12.288l-6.72-6.72V37.248l6.72-6.72h12.288l5.184 5.312v-5.312h5.632v38.72l-6.72 6.72h-20.48Zm14.976-16.448 6.592-6.656V41.728l-6.592-6.72h-8.448l-3.52 3.52V56l3.52 3.52h8.448Z"/></mask><path d="m11.072 64-6.72-6.72V23.552l6.72-6.72h21.312l6.528 6.528-3.712 3.776-5.12-5.12H13.696l-3.52 3.52v29.76l3.52 3.52h16.896l5.184-5.184 3.712 3.776L32.832 64h-21.76Zm43.486 0-6.72-6.72V37.248l6.72-6.72H70.43l6.72 6.72V57.28L70.43 64H54.557Zm2.431-4.48h11.009l3.52-3.52-.064-17.472-3.456-3.52H56.989l-3.52 3.52V56l3.52 3.52ZM94.416 64l-6.72-6.72V37.248l6.72-6.72h12.288l5.184 5.312V16.832h5.632V64h-5.632v-5.248L106.703 64H94.415Zm10.88-4.48 6.592-6.656V41.728l-6.592-6.72h-8.448l-3.52 3.52V56l3.52 3.52h8.448Zm24.588-32.64v-7.552h5.632v7.552h-5.632Zm0 37.12V30.528h5.632V64h-5.632Zm17.982 0V30.528h5.632v6.016l5.824-6.016h12.352l6.656 6.72V64h-5.632V38.656l-3.392-3.648h-8.512l-7.296 7.424V64h-5.632Zm44.402 11.968v-4.672l18.048-.064 3.52-3.456v-9.024L208.651 64h-12.288l-6.72-6.72V37.248l6.72-6.72h12.288l5.184 5.312v-5.312h5.632v38.72l-6.72 6.72h-20.48Zm14.976-16.448 6.592-6.656V41.728l-6.592-6.72h-8.448l-3.52 3.52V56l3.52 3.52h8.448Z" fill="url(#e)"/><path d="m11.072 64-.707.707.293.293h.414v-1Zm-6.72-6.72h-1v.414l.293.293.707-.707Zm0-33.728-.707-.707-.293.293v.414h1Zm6.72-6.72v-1h-.414l-.293.293.707.707Zm21.312 0 .707-.707-.293-.293h-.414v1Zm6.528 6.528.713.701.695-.707-.7-.701-.708.707ZM35.2 27.136l-.707.707.713.713.707-.719-.713-.701Zm-5.12-5.12.707-.707-.293-.293h-.414v1Zm-16.384 0v-1h-.414l-.293.293.707.707Zm-3.52 3.52-.707-.707-.293.293v.414h1Zm0 29.76h-1v.414l.293.293.707-.707Zm3.52 3.52-.707.707.293.293h.414v-1Zm16.896 0v1h.414l.293-.293-.707-.707Zm5.184-5.184.713-.701-.707-.72-.713.714.707.707Zm3.712 3.776.704.71.708-.7-.699-.711-.713.701ZM32.832 64v1h.411l.293-.29-.704-.71Zm-21.053-.707-6.72-6.72-1.414 1.414 6.72 6.72 1.414-1.414ZM5.352 57.28V23.552h-2V57.28h2Zm-.293-33.02 6.72-6.72-1.414-1.415-6.72 6.72 1.414 1.414Zm6.013-6.428h21.312v-2H11.072v2Zm20.605-.293 6.528 6.528 1.414-1.414-6.528-6.528-1.414 1.414Zm6.522 5.12-3.712 3.776 1.426 1.402 3.712-3.776-1.426-1.402Zm-2.292 3.77-5.12-5.12-1.414 1.414 5.12 5.12 1.414-1.414Zm-5.827-5.413H13.696v2H30.08v-2Zm-17.091.293-3.52 3.52 1.414 1.414 3.52-3.52-1.414-1.414Zm-3.813 4.227v29.76h2v-29.76h-2Zm.293 30.467 3.52 3.52 1.414-1.414-3.52-3.52-1.414 1.414Zm4.227 3.813h16.896v-2H13.696v2Zm17.603-.293 5.184-5.184-1.414-1.414-5.184 5.184 1.414 1.414Zm3.764-5.19 3.712 3.776 1.426-1.402-3.712-3.776-1.426 1.402Zm3.721 2.364-6.656 6.592 1.408 1.421 6.656-6.591-1.408-1.422ZM32.832 63h-21.76v2h21.76v-2Zm21.725 1-.707.707.293.293h.414v-1Zm-6.72-6.72h-1v.414l.293.293.707-.707Zm0-20.032-.707-.707-.293.293v.414h1Zm6.72-6.72v-1h-.414l-.293.293.707.707Zm15.873 0 .707-.707-.293-.293h-.414v1Zm6.72 6.72h1v-.414l-.293-.293-.707.707Zm0 20.032.707.707.293-.293v-.414h-1ZM70.43 64v1h.414l.293-.293L70.43 64Zm-13.44-4.48-.708.707.293.293h.414v-1Zm11.008 0v1h.414l.293-.293-.707-.707Zm3.52-3.52.707.707.294-.294-.002-.417-1 .004Zm-.064-17.472 1-.004-.002-.406-.285-.29-.713.7Zm-3.456-3.52.713-.7-.294-.3h-.42v1Zm-11.009 0v-1h-.414l-.293.293.708.707Zm-3.52 3.52-.707-.707-.293.293v.414h1Zm0 17.472h-1v.414l.293.293.707-.707Zm1.796 7.293-6.72-6.72-1.415 1.414 6.72 6.72 1.415-1.414Zm-6.428-6.013V37.248h-2V57.28h2Zm-.292-19.325 6.72-6.72-1.415-1.414-6.72 6.72 1.415 1.414Zm6.012-6.427H70.43v-2H54.557v2Zm15.165-.293 6.72 6.72 1.415-1.414-6.72-6.72-1.415 1.414Zm6.428 6.013V57.28h2V37.248h-2Zm.292 19.325-6.72 6.72 1.415 1.414 6.72-6.72-1.415-1.414ZM70.43 63H54.557v2H70.43v-2Zm-13.44-2.48h11.008v-2H56.989v2Zm11.715-.293 3.52-3.52-1.415-1.414-3.52 3.52 1.415 1.414Zm3.813-4.23-.064-17.473-2 .008.064 17.472 2-.008Zm-.35-18.17-3.457-3.52-1.427 1.402 3.456 3.52 1.427-1.402Zm-4.17-3.819H56.989v2h11.009v-2Zm-11.716.293-3.52 3.52 1.415 1.414 3.52-3.52-1.415-1.414Zm-3.813 4.227V56h2V38.528h-2Zm.293 18.18 3.52 3.52 1.415-1.415-3.52-3.52-1.415 1.414ZM94.415 64l-.707.707L94 65h.414v-1Zm-6.72-6.72h-1v.414l.293.293.707-.707Zm0-20.032-.707-.707-.293.293v.414h1Zm6.72-6.72v-1h-.414l-.293.293.707.707Zm12.288 0 .716-.698-.295-.302h-.421v1Zm5.184 5.312-.716.698 1.716 1.759V35.84h-1Zm0-19.008v-1h-1v1h1Zm5.632 0h1v-1h-1v1Zm0 47.168v1h1v-1h-1Zm-5.632 0h-1v1h1v-1Zm0-5.248h1v-2.435l-1.711 1.732.711.703ZM106.703 64v1h.418l.293-.297-.711-.703Zm-1.408-4.48v1h.417l.294-.296-.711-.704Zm6.592-6.656.711.704.289-.293v-.411h-1Zm0-11.136h1v-.409l-.286-.291-.714.7Zm-6.592-6.72.714-.7-.294-.3h-.42v1Zm-8.448 0v-1h-.414l-.293.293.707.707Zm-3.52 3.52-.707-.707-.293.293v.414h1Zm0 17.472h-1v.414l.293.293.707-.707Zm3.52 3.52-.707.707.293.293h.414v-1Zm-1.725 3.773-6.72-6.72-1.414 1.414 6.72 6.72 1.414-1.414Zm-6.427-6.013V37.248h-2V57.28h2Zm-.293-19.325 6.72-6.72-1.414-1.414-6.72 6.72 1.414 1.414Zm6.013-6.427h12.288v-2H94.415v2Zm11.572-.302 5.184 5.312 1.432-1.396-5.184-5.312-1.432 1.396Zm6.9 4.614V16.832h-2V35.84h2Zm-1-18.008h5.632v-2h-5.632v2Zm4.632-1V64h2V16.832h-2Zm1 46.168h-5.632v2h5.632v-2Zm-4.632 1v-5.248h-2V64h2Zm-1.711-5.95-5.184 5.247 1.422 1.406 5.184-5.248-1.422-1.406ZM106.703 63H94.415v2h12.288v-2Zm-.697-2.776 6.592-6.656-1.422-1.408-6.592 6.656 1.422 1.408Zm6.881-7.36V41.728h-2v11.136h2Zm-.286-11.836-6.592-6.72-1.428 1.4 6.592 6.72 1.428-1.4Zm-7.306-7.02h-8.448v2h8.448v-2Zm-9.155.293-3.52 3.52 1.414 1.414 3.52-3.52-1.414-1.414Zm-3.813 4.227V56h2V38.528h-2Zm.293 18.18 3.52 3.52 1.414-1.415-3.52-3.52-1.414 1.414Zm4.227 3.812h8.448v-2h-8.448v2Zm33.036-33.64h-1v1h1v-1Zm0-7.552v-1h-1v1h1Zm5.632 0h1v-1h-1v1Zm0 7.552v1h1v-1h-1ZM129.883 64h-1v1h1v-1Zm0-33.472v-1h-1v1h1Zm5.632 0h1v-1h-1v1Zm0 33.472v1h1v-1h-1Zm-4.632-37.12v-7.552h-2v7.552h2Zm-1-6.552h5.632v-2h-5.632v2Zm4.632-1v7.552h2v-7.552h-2Zm1 6.552h-5.632v2h5.632v-2ZM130.883 64V30.528h-2V64h2Zm-1-32.472h5.632v-2h-5.632v2Zm4.632-1V64h2V30.528h-2Zm1 32.472h-5.632v2h5.632v-2Zm12.35 1h-1v1h1v-1Zm0-33.472v-1h-1v1h1Zm5.632 0h1v-1h-1v1Zm0 6.016h-1v2.47l1.719-1.775-.719-.695Zm5.824-6.016v-1h-.423l-.295.305.718.695Zm12.352 0 .711-.704-.293-.296h-.418v1Zm6.656 6.72h1v-.411l-.289-.293-.711.704Zm0 26.752v1h1v-1h-1Zm-5.632 0h-1v1h1v-1Zm0-25.344h1v-.393l-.267-.288-.733.681Zm-3.392-3.648.733-.68-.297-.32h-.436v1Zm-8.512 0v-1h-.419l-.294.3.713.7Zm-7.296 7.424-.713-.7-.287.29v.41h1Zm0 21.568v1h1v-1h-1Zm-4.632 0V30.528h-2V64h2Zm-1-32.472h5.632v-2h-5.632v2Zm4.632-1v6.016h2v-6.016h-2Zm1.719 6.712 5.824-6.017-1.437-1.39-5.824 6.015 1.437 1.392Zm5.105-5.712h12.352v-2h-12.352v2Zm11.642-.296 6.656 6.72 1.421-1.408-6.656-6.72-1.421 1.408Zm6.366 6.016V64h2V37.248h-2Zm1 25.752h-5.632v2h5.632v-2Zm-4.632 1V38.656h-2V64h2Zm-.267-26.025-3.392-3.648-1.465 1.362 3.392 3.648 1.465-1.362Zm-4.125-3.967h-8.512v2h8.512v-2Zm-9.225.3-7.296 7.423 1.427 1.402 7.296-7.424-1.427-1.402Zm-7.583 8.124V64h2V42.432h-2Zm1 20.568h-5.632v2h5.632v-2Zm38.77 12.968h-1v1h1v-1Zm0-4.672-.004-1-.996.003v.997h1Zm18.048-.064.003 1 .407-.001.29-.285-.7-.714Zm3.52-3.456.7.714.3-.294v-.42h-1Zm0-9.024h1v-2.435l-1.712 1.732.712.703ZM208.651 64v1h.417l.294-.297-.711-.703Zm-12.288 0-.708.707.293.293h.415v-1Zm-6.72-6.72h-1v.414l.292.293.708-.707Zm0-20.032-.708-.707-.292.293v.414h1Zm6.72-6.72v-1h-.415l-.293.293.708.707Zm12.288 0 .715-.698-.294-.302h-.421v1Zm5.184 5.312-.716.698 1.716 1.759V35.84h-1Zm0-5.312v-1h-1v1h1Zm5.632 0h1v-1h-1v1Zm0 38.72.707.707.293-.293v-.414h-1Zm-6.72 6.72v1h.414l.293-.293-.707-.707Zm-5.504-16.448v1h.417l.293-.296-.71-.704Zm6.592-6.656.71.704.29-.293v-.411h-1Zm0-11.136h1v-.409l-.287-.291-.713.7Zm-6.592-6.72.713-.7-.294-.3h-.419v1Zm-8.448 0v-1h-.415l-.293.293.708.707Zm-3.52 3.52-.708-.707-.292.293v.414h1Zm0 17.472h-1v.414l.292.293.708-.707Zm3.52 3.52-.708.707.293.293h.415v-1Zm-5.528 16.448v-4.672h-2v4.672h2Zm-.997-3.672 18.048-.064-.007-2-18.048.064.007 2Zm18.745-.35 3.52-3.456-1.401-1.428-3.52 3.456 1.401 1.428Zm3.82-4.17v-9.024h-2v9.024h2Zm-1.712-9.727-5.184 5.248 1.423 1.406 5.184-5.248-1.423-1.406ZM208.651 63h-12.288v2h12.288v-2Zm-11.581.293-6.72-6.72-1.415 1.414 6.72 6.72 1.415-1.414Zm-6.427-6.013V37.248h-2V57.28h2Zm-.293-19.325 6.72-6.72-1.415-1.414-6.72 6.72 1.415 1.414Zm6.013-6.427h12.288v-2h-12.288v2Zm11.572-.302 5.184 5.312 1.431-1.396-5.184-5.312-1.431 1.396Zm6.9 4.614v-5.312h-2v5.312h2Zm-1-4.312h5.632v-2h-5.632v2Zm4.632-1v38.72h2v-38.72h-2Zm.292 38.013-6.72 6.72 1.415 1.414 6.72-6.72-1.415-1.414Zm-6.012 6.427h-20.48v2h20.48v-2Zm-4.794-14.744 6.592-6.656-1.421-1.408-6.592 6.656 1.421 1.408Zm6.882-7.36V41.728h-2v11.136h2Zm-.287-11.836-6.592-6.72-1.427 1.4 6.592 6.72 1.427-1.4Zm-7.305-7.02h-8.448v2h8.448v-2Zm-9.156.293-3.52 3.52 1.415 1.414 3.52-3.52-1.415-1.414Zm-3.812 4.227V56h2V38.528h-2Zm.292 18.18 3.52 3.52 1.415-1.415-3.52-3.52-1.415 1.414Zm4.228 3.812h8.448v-2h-8.448v2Z" fill="#0D0D52" mask="url(#f)"/><defs><linearGradient id="a" x1="240.5" y1="0" x2="240.5" y2="77" gradientUnits="userSpaceOnUse"><stop stop-color="#A1FCFF"/><stop offset="1" stop-color="#025E8C"/></linearGradient><linearGradient id="b" x1="262.5" y1="13" x2="262.5" y2="77" gradientUnits="userSpaceOnUse"><stop stop-color="#A1FCFF"/><stop offset="1" stop-color="#025E8C"/></linearGradient><linearGradient id="c" x1="284.5" y1="30" x2="284.5" y2="77" gradientUnits="userSpaceOnUse"><stop stop-color="#A1FCFF"/><stop offset="1" stop-color="#025E8C"/></linearGradient><linearGradient id="d" x1="306.5" y1="47" x2="306.5" y2="77" gradientUnits="userSpaceOnUse"><stop stop-color="#A1FCFF"/><stop offset="1" stop-color="#025E8C"/></linearGradient><linearGradient id="e" x1="112.5" y1="0" x2="112.5" y2="77" gradientUnits="userSpaceOnUse"><stop stop-color="#A1FCFF"/><stop offset="1" stop-color="#025E8C"/></linearGradient></defs></svg>