<svg width="60" height="60" fill="none" xmlns="http://www.w3.org/2000/svg"><rect x=".5" y=".5" width="59" height="59" rx="4.5" fill="#32374D" stroke="#78A5E0"/><path d="M26.7 36c-.5 0-.908-.158-1.225-.475C25.158 35.208 25 34.8 25 34.3V32h2.4v1.6h5.2v-2.65h-5.9c-.467 0-.867-.167-1.2-.5a1.637 1.637 0 0 1-.5-1.2V25.7c0-.5.158-.908.475-1.225.317-.317.725-.475 1.225-.475h6.6c.5 0 .908.158 1.225.475.317.317.475.725.475 1.225V28h-2.4v-1.6h-5.2v2.65h5.9c.467 0 .867.167 1.2.5.333.333.5.733.5 1.2v3.55c0 .5-.158.908-.475 1.225-.317.317-.725.475-1.225.475h-6.6Zm13 0c-.5 0-.908-.158-1.225-.475C38.158 35.208 38 34.8 38 34.3V32h2.4v1.6h5.2v-2.65h-5.9c-.467 0-.867-.167-1.2-.5a1.637 1.637 0 0 1-.5-1.2V25.7c0-.5.158-.908.475-1.225.317-.317.725-.475 1.225-.475h6.6c.5 0 .908.158 1.225.475.317.317.475.725.475 1.225V28h-2.4v-1.6h-5.2v2.65h5.9c.467 0 .867.167 1.2.5.333.333.5.733.5 1.2v3.55c0 .5-.158.908-.475 1.225-.317.317-.725.475-1.225.475h-6.6Zm-26 0c-.5 0-.908-.158-1.225-.475C12.158 35.208 12 34.8 12 34.3v-8.6c0-.5.158-.908.475-1.225.317-.317.725-.475 1.225-.475h6.6c.5 0 .908.158 1.225.475.317.317.475.725.475 1.225V28h-2.4v-1.6h-5.2v7.2h5.2V32H22v2.3c0 .5-.158.908-.475 1.225-.317.317-.725.475-1.225.475h-6.6Z" fill="url(#a)"/><defs><linearGradient id="a" x1="30" y1="24" x2="30" y2="36" gradientUnits="userSpaceOnUse"><stop offset=".075" stop-color="#7BA8E3"/><stop offset=".235" stop-color="#5E8DCA"/><stop offset=".5" stop-color="#4D6DB5"/><stop offset=".75" stop-color="#3B4C9F"/><stop offset="1" stop-color="#435FA7"/></linearGradient></defs></svg>