<svg width="454" height="349" viewBox="0 0 454 349" fill="none" xmlns="http://www.w3.org/2000/svg">
<rect x="3.99748" y="0.835938" width="450.003" height="348.164" fill="#32374D"/>
<rect width="3.99748" height="290.137" transform="matrix(-1 0 0 1 424.875 26.9482)" fill="url(#paint0_linear_49_32)"/>
<rect width="3.99748" height="290.137" transform="matrix(-1 0 0 1 33.122 26.9482)" fill="url(#paint1_linear_49_32)"/>
<rect width="4.06191" height="342.642" transform="matrix(0 -1 -1 0 399.177 4.89795)" fill="url(#paint2_linear_49_32)"/>
<rect width="4.06191" height="342.642" transform="matrix(0 -1 -1 0 399.177 340.876)" fill="url(#paint3_linear_49_32)"/>
<rect width="4.06191" height="28.5535" transform="matrix(0 -1 -1 0 439.152 11.2808)" fill="url(#paint4_linear_49_32)"/>
<rect width="4.06191" height="28.5535" transform="matrix(0 -1 -1 0 45.1145 11.2808)" fill="url(#paint5_linear_49_32)"/>
<rect width="4.06191" height="28.5535" transform="matrix(0 -1 -1 0 45.1145 336.814)" fill="url(#paint6_linear_49_32)"/>
<rect width="4.06191" height="28.5535" transform="matrix(0 -1 -1 0 439.152 336.814)" fill="url(#paint7_linear_49_32)"/>
<rect width="3.99748" height="348.164" transform="matrix(-1 0 0 1 454 0.835938)" fill="url(#paint8_linear_49_32)"/>
<rect width="3.99748" height="348.164" transform="matrix(-1 0 0 1 3.99748 0.835938)" fill="url(#paint9_linear_49_32)"/>
<defs>
<linearGradient id="paint0_linear_49_32" x1="1.99874" y1="0" x2="1.99874" y2="290.137" gradientUnits="userSpaceOnUse">
<stop stop-color="#FFD701"/>
<stop offset="0.5" stop-color="#FFD601"/>
<stop offset="0.74" stop-color="#FACB00"/>
<stop offset="0.885" stop-color="#F5C101"/>
<stop offset="0.975" stop-color="#FEB400"/>
</linearGradient>
<linearGradient id="paint1_linear_49_32" x1="1.99874" y1="0" x2="1.99874" y2="290.137" gradientUnits="userSpaceOnUse">
<stop stop-color="#FFD701"/>
<stop offset="0.5" stop-color="#FFD601"/>
<stop offset="0.74" stop-color="#FACB00"/>
<stop offset="0.885" stop-color="#F5C101"/>
<stop offset="0.975" stop-color="#FEB400"/>
</linearGradient>
<linearGradient id="paint2_linear_49_32" x1="0" y1="171.321" x2="4.06191" y2="171.321" gradientUnits="userSpaceOnUse">
<stop stop-color="#FFD701"/>
<stop offset="0.5" stop-color="#FDDC2F"/>
<stop offset="0.75" stop-color="#FED918"/>
<stop offset="0.875" stop-color="#FCD20C"/>
<stop offset="1" stop-color="#F9BB01"/>
</linearGradient>
<linearGradient id="paint3_linear_49_32" x1="0" y1="171.321" x2="4.06191" y2="171.321" gradientUnits="userSpaceOnUse">
<stop stop-color="#FFD701"/>
<stop offset="0.5" stop-color="#FDDC2F"/>
<stop offset="0.75" stop-color="#FED918"/>
<stop offset="0.875" stop-color="#FCD20C"/>
<stop offset="1" stop-color="#F9BB01"/>
</linearGradient>
<linearGradient id="paint4_linear_49_32" x1="0" y1="14.2767" x2="4.06191" y2="14.2767" gradientUnits="userSpaceOnUse">
<stop stop-color="#FFD701"/>
<stop offset="0.295" stop-color="#FFD601"/>
<stop offset="0.5" stop-color="#FDD920"/>
<stop offset="0.675" stop-color="#F9CA01"/>
<stop offset="0.88" stop-color="#FDB601"/>
</linearGradient>
<linearGradient id="paint5_linear_49_32" x1="0" y1="14.2767" x2="4.06191" y2="14.2767" gradientUnits="userSpaceOnUse">
<stop stop-color="#FFD701"/>
<stop offset="0.295" stop-color="#FFD601"/>
<stop offset="0.5" stop-color="#FDD920"/>
<stop offset="0.675" stop-color="#F9CA01"/>
<stop offset="0.88" stop-color="#FDB601"/>
</linearGradient>
<linearGradient id="paint6_linear_49_32" x1="0" y1="14.2767" x2="4.06191" y2="14.2767" gradientUnits="userSpaceOnUse">
<stop stop-color="#FFD701"/>
<stop offset="0.295" stop-color="#FFD601"/>
<stop offset="0.5" stop-color="#FDD920"/>
<stop offset="0.675" stop-color="#F9CA01"/>
<stop offset="0.88" stop-color="#FDB601"/>
</linearGradient>
<linearGradient id="paint7_linear_49_32" x1="0" y1="14.2767" x2="4.06191" y2="14.2767" gradientUnits="userSpaceOnUse">
<stop stop-color="#FFD701"/>
<stop offset="0.295" stop-color="#FFD601"/>
<stop offset="0.5" stop-color="#FDD920"/>
<stop offset="0.675" stop-color="#F9CA01"/>
<stop offset="0.88" stop-color="#FDB601"/>
</linearGradient>
<linearGradient id="paint8_linear_49_32" x1="1.99874" y1="0" x2="1.99874" y2="348.164" gradientUnits="userSpaceOnUse">
<stop stop-color="#FFD701"/>
<stop offset="0.25" stop-color="#FFD701"/>
<stop offset="0.5" stop-color="#FFD701"/>
<stop offset="0.75" stop-color="#FCCE01"/>
<stop offset="1" stop-color="#FEB401"/>
</linearGradient>
<linearGradient id="paint9_linear_49_32" x1="1.99874" y1="0" x2="1.99874" y2="348.164" gradientUnits="userSpaceOnUse">
<stop stop-color="#FFD701"/>
<stop offset="0.25" stop-color="#FFD701"/>
<stop offset="0.5" stop-color="#FFD701"/>
<stop offset="0.75" stop-color="#FCCE01"/>
<stop offset="1" stop-color="#FEB401"/>
</linearGradient>
</defs>
</svg>
