<svg width="60" height="60" fill="none" xmlns="http://www.w3.org/2000/svg"><rect x=".5" y=".5" width="59" height="59" rx="4.5" fill="#32374D" stroke="#FE4C01"/><path d="M6 36V24h2.4v4.45h5.4V24h2.4v12h-2.4v-5.15H8.4V36H6Zm15.8 0v-9.6h-3.5V24h9.4v2.4h-3.5V36h-2.4Zm8 0V25.7c0-.5.158-.908.475-1.225C30.592 24.158 31 24 31.5 24h10c.5 0 .908.158 1.225.475.317.317.475.725.475 1.225V36h-2.4v-9.6h-3.1v7.5h-2.4v-7.5h-3.1V36h-2.4Zm16.3 0V24h2.4v9.6H54V36h-7.9Z" fill="url(#a)"/><defs><linearGradient id="a" x1="6" y1="30" x2="54" y2="30" gradientUnits="userSpaceOnUse"><stop stop-color="#FFA600"/><stop offset=".5" stop-color="#FF8F00"/><stop offset=".75" stop-color="#FF7200"/><stop offset=".875" stop-color="#FF5400"/><stop offset="1" stop-color="#FE3600"/></linearGradient></defs></svg>