<svg width="60" height="60" fill="none" xmlns="http://www.w3.org/2000/svg"><rect x=".5" y=".5" width="59" height="59" rx="4.5" fill="#32374D" stroke="url(#a)"/><path d="M32.761 9c2.382 5.473-8.54 8.853-9.556 13.413-.93 4.19 6.49 9.058 6.497 9.058-1.127-1.733-1.956-3.162-3.086-5.86C24.704 21.05 38.26 16.92 32.761 9Zm7.255 7.58s-9.583.612-10.07 6.693c-.217 2.708 2.52 4.133 2.599 6.102.064 1.609-1.625 2.956-1.625 2.956s3.073-.581 4.034-3.037c1.066-2.725-2.078-4.566-1.76-6.747.305-2.086 6.822-5.967 6.822-5.967ZM24.965 30.638s-8.77-.124-8.77 2.338c0 2.574 11.48 2.766 19.68 1.183 0 0 2.178-1.488 2.76-2.043-5.373 1.089-17.622 1.21-17.622.27 0-.868 3.952-1.748 3.952-1.748Zm16.865 0c-.86.067-1.787.396-2.626.994 1.976-.423 3.654.793 3.654 2.178 0 3.118-4.547 6.047-4.547 6.047s7.038-.792 7.038-5.913c0-2.325-1.628-3.454-3.52-3.306Zm-18.976 4.784c-1.347 0-3.357 1.049-3.357 2.043 0 2 10.124 3.538 17.622.618l-2.598-1.585c-5.083 1.616-14.442 1.088-11.668-1.076Zm1.245 4.49c-1.844 0-3.06 1.105-3.06 1.935 0 2.567 11.015 2.825 15.377.215l-2.761-1.747c-3.26 1.367-11.438 1.575-9.556-.404Zm-6.145 2.31C14.949 42.163 13 43.504 13 44.616c0 5.914 30.752 5.642 30.752-.403 0-1.005-1.168-1.492-1.598-1.72C44.67 48.27 16.98 47.81 16.98 44.4c0-.776 2.037-1.518 3.925-1.156l-1.597-.914c-.47-.07-.923-.097-1.353-.107ZM47 46.203c-4.676 4.4-16.526 5.997-28.45 3.278 11.92 4.845 28.393 2.127 28.45-3.279Z" fill="url(#b)"/><defs><linearGradient id="a" x1="30" y1="0" x2="30" y2="60" gradientUnits="userSpaceOnUse"><stop offset=".025" stop-color="#F5A243"/><stop offset=".263" stop-color="#DC8624"/><stop offset=".5" stop-color="#D77F1B"/><stop offset=".75" stop-color="#D66711"/><stop offset=".93" stop-color="#D92B00"/></linearGradient><linearGradient id="b" x1="30" y1="9" x2="30" y2="52" gradientUnits="userSpaceOnUse"><stop offset=".025" stop-color="#F5A243"/><stop offset=".263" stop-color="#DC8624"/><stop offset=".5" stop-color="#D77F1B"/><stop offset=".75" stop-color="#D66711"/><stop offset=".93" stop-color="#D92B00"/></linearGradient></defs></svg>