<svg width="60" height="60" fill="none" xmlns="http://www.w3.org/2000/svg"><rect x=".5" y=".5" width="59" height="59" rx="4.5" fill="#32374D" stroke="#FFD602"/><path d="M20.7 36c-.5 0-.908-.158-1.225-.475C19.158 35.208 19 34.8 19 34.3V31h2.4v2.6h4.2V24H28v10.3c0 .5-.158.908-.475 1.225-.317.317-.725.475-1.225.475h-5.6Zm12 0c-.5 0-.908-.158-1.225-.475C31.158 35.208 31 34.8 31 34.3V32h2.4v1.6h5.2v-2.65h-5.9c-.467 0-.867-.167-1.2-.5a1.637 1.637 0 0 1-.5-1.2V25.7c0-.5.158-.908.475-1.225.317-.317.725-.475 1.225-.475h6.6c.5 0 .908.158 1.225.475.317.317.475.725.475 1.225V28h-2.4v-1.6h-5.2v2.65h5.9c.467 0 .867.167 1.2.5.333.333.5.733.5 1.2v3.55c0 .5-.158.908-.475 1.225-.317.317-.725.475-1.225.475h-6.6Z" fill="url(#a)"/><defs><linearGradient id="a" x1="30" y1="24" x2="30" y2="36" gradientUnits="userSpaceOnUse"><stop stop-color="#FFD601"/><stop offset=".5" stop-color="#FFD709"/><stop offset=".75" stop-color="#FCD208"/><stop offset=".875" stop-color="#FDC404"/><stop offset="1" stop-color="#FDB701"/></linearGradient></defs></svg>