<svg width="60" height="60" fill="none" xmlns="http://www.w3.org/2000/svg"><rect x=".5" y=".5" width="59" height="59" rx="4.5" fill="#32374D" stroke="url(#a)"/><path d="M11 36V24h7.6c.667 0 1.233.233 1.7.7.467.467.7 1.033.7 1.7v3.2c0 .667-.233 1.233-.7 1.7-.467.467-1.033.7-1.7.7h-5.2v4H11Zm12.9 0V24h2.4v4.45h5.4V24h2.4v12h-2.4v-5.15h-5.4V36h-2.4ZM38 36V24h7.6c.667 0 1.233.233 1.7.7.467.467.7 1.033.7 1.7v3.2c0 .667-.233 1.233-.7 1.7-.467.467-1.033.7-1.7.7h-5.2v4H38Zm-24.6-6.4h5.2v-3.2h-5.2v3.2Zm27 0h5.2v-3.2h-5.2v3.2Z" fill="url(#b)"/><defs><linearGradient id="a" x1="30" y1="0" x2="30" y2="60" gradientUnits="userSpaceOnUse"><stop stop-color="#BD0DFC"/><stop offset=".415" stop-color="#AC0AF7"/><stop offset=".58" stop-color="#B146FD"/><stop offset=".745" stop-color="#8A03F0"/><stop offset=".98" stop-color="#8458CC"/></linearGradient><linearGradient id="b" x1="29.5" y1="24" x2="29.5" y2="36" gradientUnits="userSpaceOnUse"><stop stop-color="#BD0DFC"/><stop offset=".415" stop-color="#AC0AF7"/><stop offset=".623" stop-color="#B146FD"/><stop offset=".726" stop-color="#8A03F0"/><stop offset=".885" stop-color="#8458CC"/></linearGradient></defs></svg>