<svg width="60" height="60" fill="none" xmlns="http://www.w3.org/2000/svg"><rect x=".5" y=".5" width="59" height="59" rx="4.5" fill="#32374D" stroke="url(#a)"/><path d="M31.1 13c-2.841 0-4.769.678-5.994 1.662-1.225.985-1.706 2.25-1.706 3.304V21.4h7v.7H19.966c-1.28 0-2.579.555-3.5 1.728C15.544 25.001 15 26.751 15 29.1s.544 4.099 1.466 5.272c.921 1.173 2.22 1.728 3.5 1.728H23.4v4.134c0 1.053.481 2.32 1.706 3.303 1.225.985 3.153 1.663 5.994 1.663 2.841 0 4.769-.678 5.994-1.663 1.225-.984 1.706-2.25 1.706-3.303V36.8h-7v-.7h10.434c1.28 0 2.579-.555 3.5-1.728.922-1.173 1.466-2.923 1.466-5.272s-.544-4.099-1.466-5.272c-.921-1.173-2.22-1.728-3.5-1.728H38.8v-4.134c0-1.08-.478-2.35-1.706-3.325C35.866 13.665 33.938 13 31.1 13Zm0 1.4c2.622 0 4.21.612 5.119 1.334.908.722 1.181 1.562 1.181 2.232V26.3a2.1 2.1 0 0 1-2.1 2.1h-8.4a3.506 3.506 0 0 0-3.216 2.144 3.36 3.36 0 0 0-.218.656c-.047.227-.066.46-.066.7v2.8h-3.434c-.889 0-1.712-.347-2.385-1.203C16.91 32.64 16.4 31.23 16.4 29.1c0-2.13.509-3.541 1.181-4.397.673-.856 1.496-1.203 2.385-1.203H31.8V20h-7v-2.034c0-.627.27-1.48 1.181-2.21.91-.73 2.5-1.356 5.119-1.356Zm-3.5 2.1c-.771 0-1.4.629-1.4 1.4 0 .771.629 1.4 1.4 1.4.771 0 1.4-.629 1.4-1.4 0-.771-.629-1.4-1.4-1.4Zm11.2 7h3.434c.889 0 1.712.347 2.385 1.203.672.856 1.181 2.267 1.181 4.397 0 2.13-.509 3.541-1.181 4.397-.673.856-1.496 1.203-2.385 1.203H30.4v3.5h7v2.034c0 .627-.27 1.48-1.181 2.21-.91.73-2.5 1.356-5.119 1.356-2.62 0-4.208-.626-5.119-1.356-.91-.73-1.181-1.584-1.181-2.21V31.9a2.107 2.107 0 0 1 2.1-2.1h8.4c1.922 0 3.5-1.578 3.5-3.5v-2.8Zm-4.2 15.4c-.771 0-1.4.629-1.4 1.4 0 .771.629 1.4 1.4 1.4.771 0 1.4-.629 1.4-1.4 0-.771-.629-1.4-1.4-1.4Z" fill="url(#b)"/><defs><linearGradient id="a" x1="30" y1="0" x2="30" y2="60" gradientUnits="userSpaceOnUse"><stop stop-color="#A1FCFF"/><stop offset="1" stop-color="#025E8C"/></linearGradient><linearGradient id="b" x1="31.1" y1="13" x2="31.1" y2="45.2" gradientUnits="userSpaceOnUse"><stop stop-color="#A1FCFF"/><stop offset="1" stop-color="#025E8C"/></linearGradient></defs></svg>