<svg width="82" height="82" fill="none" xmlns="http://www.w3.org/2000/svg"><path d="M41 4.92C21.093 4.92 4.92 21.093 4.92 41c0 18.071 13.33 33.027 30.69 35.635l1.883.285V48.489h-8.524v-5.772h8.524v-7.665c0-4.72 1.132-7.829 3.007-9.78 1.875-1.95 4.646-2.933 8.501-2.933 3.083 0 4.283.186 5.423.326v4.725h-4.013a5.887 5.887 0 0 0-5.116 2.963c-.97 1.692-1.271 3.713-1.271 5.772v6.589h10.041l-.893 5.772h-9.148v28.479l1.86-.253C63.493 74.324 77.08 59.248 77.08 41 77.08 21.093 60.907 4.92 41 4.92Zm0 3.28c18.134 0 32.8 14.666 32.8 32.8 0 15.957-11.421 29.08-26.496 32.034V51.766h8.68l1.906-12.332H47.304v-3.31c0-1.7.311-3.225.836-4.14.524-.917 1.03-1.314 2.27-1.314h7.294V19.696l-1.422-.192c-.984-.133-3.23-.446-7.28-.446-4.434 0-8.239 1.208-10.866 3.94-2.626 2.733-3.923 6.8-3.923 12.054v4.385h-8.524v12.332h8.524v21.163C19.38 69.79 8.2 56.784 8.2 41 8.2 22.866 22.866 8.2 41 8.2Z" fill="url(#a)"/><defs><linearGradient id="a" x1="41" y1="4.92" x2="41" y2="76.965" gradientUnits="userSpaceOnUse"><stop stop-color="#A1FCFF"/><stop offset="1" stop-color="#025E8C"/></linearGradient></defs></svg>