<svg width="72" height="72" fill="none" xmlns="http://www.w3.org/2000/svg"><path d="M23.04 4.32c-10.321 0-18.72 8.4-18.72 18.72v25.92c0 10.322 8.399 18.72 18.72 18.72h25.92c10.321 0 18.72-8.399 18.72-18.72V23.04c0-10.32-8.399-18.72-18.72-18.72H23.04Zm0 2.88h25.92A15.82 15.82 0 0 1 64.8 23.04v25.92A15.82 15.82 0 0 1 48.96 64.8H23.04A15.82 15.82 0 0 1 7.2 48.96V23.04A15.82 15.82 0 0 1 23.04 7.2Zm30.24 8.64a2.88 2.88 0 1 0 0 5.76 2.88 2.88 0 0 0 0-5.76ZM36 20.16c-8.731 0-15.84 7.11-15.84 15.84 0 8.731 7.109 15.84 15.84 15.84S51.84 44.731 51.84 36c0-8.73-7.109-15.84-15.84-15.84Zm0 2.88c7.175 0 12.96 5.786 12.96 12.96 0 7.175-5.785 12.96-12.96 12.96A12.938 12.938 0 0 1 23.04 36c0-7.174 5.785-12.96 12.96-12.96Z" fill="url(#a)"/><defs><linearGradient id="a" x1="36" y1="4.32" x2="36" y2="67.68" gradientUnits="userSpaceOnUse"><stop stop-color="#A1FCFF"/><stop offset="1" stop-color="#025E8C"/></linearGradient></defs></svg>