<svg width="71" height="53" fill="none" xmlns="http://www.w3.org/2000/svg"><path d="M35.1 0C24.273 0 14.107.82 8.693 1.967c-3.606.82-6.726 3.28-7.38 7.053C.66 12.953 0 18.86 0 26.24c0 7.38.653 13.12 1.473 17.22.66 3.607 3.774 6.233 7.38 7.053C14.6 51.66 24.433 52.48 35.26 52.48s20.66-.82 26.4-1.967c3.613-.82 6.727-3.28 7.38-7.053.66-4.1 1.48-10 1.64-17.38 0-7.38-.82-13.287-1.64-17.387-.653-3.606-3.767-6.233-7.38-7.053C55.92.82 45.92 0 35.1 0Zm0 3.28c11.807 0 21.313.98 25.907 1.8 2.46.66 4.426 2.3 4.753 4.433.987 5.247 1.64 10.827 1.64 16.567-.16 7.047-.98 12.787-1.64 16.887-.487 3.113-3.767 4.1-4.753 4.433-5.907 1.147-15.747 1.96-25.587 1.96s-19.84-.653-25.58-1.96c-2.46-.66-4.427-2.3-4.753-4.433C3.773 38.373 3.28 32.307 3.28 26.24c0-7.547.66-13.12 1.313-16.56.494-3.12 3.934-4.107 4.754-4.433C14.76 4.1 24.767 3.28 35.1 3.28Zm-8.86 9.84v26.24L49.2 26.24 26.24 13.12Zm3.28 5.58 13.12 7.54-13.12 7.54V18.7Z" fill="url(#a)"/><defs><linearGradient id="a" x1="35.34" y1="0" x2="35.34" y2="52.48" gradientUnits="userSpaceOnUse"><stop stop-color="#A1FCFF"/><stop offset="1" stop-color="#025E8C"/></linearGradient></defs></svg>